<svg id="Ebene_1" data-name="Ebene 1" xmlns="http://www.w3.org/2000/svg" viewBox="0 0 283.46 283.46"><defs><style>.cls-1{fill:#fff;}.cls-2{fill:#1d1d1b;}</style></defs><circle class="cls-1" cx="141.73" cy="141.73" r="131.56"/><path class="cls-2" d="M81.22,92l38.21,97.87,22-45-14.15-39.12c-1.09-3.06-2.06-5.67-2.93-7.84l-2.21-5.49a16.47,16.47,0,0,0-5.32-6,29.94,29.94,0,0,0-4.19-2.21,17.3,17.3,0,0,1-3.29-1.76,3.39,3.39,0,0,1-1.17-1.26,3.87,3.87,0,0,1-.09-.72,2,2,0,0,1,.09-.63,1.09,1.09,0,0,1,1.08-.54h30.55a2.56,2.56,0,0,1,1.54.54,3,3,0,0,1,1.17,1.35,1.48,1.48,0,0,1,.09.45,2.53,2.53,0,0,1-1,1.81c-.61.54-1.28,1.12-2,1.75a5.77,5.77,0,0,0-1.67,2.3,5,5,0,0,0-.36,1.89,6.2,6.2,0,0,0,.63,2.62l12.89,33L160.34,106a10.24,10.24,0,0,0,1.08-4.23,5.77,5.77,0,0,0-.72-2.89q-1.8-2.7-5.31-7l-4.51-5.14,11.26-8.47a2.29,2.29,0,0,1,1.53-.63,3.22,3.22,0,0,1,2,.9l7.39,7.57a8.25,8.25,0,0,1,2.34,6,13.91,13.91,0,0,1-.72,4.23,127.94,127.94,0,0,1-6.4,15l-12.43,25.78,20.54,52.72L217.3,106a10.24,10.24,0,0,0,1.08-4.23,5.77,5.77,0,0,0-.72-2.89q-1.82-2.7-5.41-7l-4.42-5.14L219,78.29a2.29,2.29,0,0,1,1.53-.63,3.3,3.3,0,0,1,2.07.9L230,86.13a8.26,8.26,0,0,1,2.35,6,14.22,14.22,0,0,1-.72,4.23,131.43,131.43,0,0,1-6.4,15l-44.16,91.56a6.82,6.82,0,0,1-1.35,2.35,2,2,0,0,1-1.44.54H164.76a1.59,1.59,0,0,1-1.45-.72,5.7,5.7,0,0,1-1-2.08q-.63-1.8-.9-2.61L146,157.59l-21.9,45.33a6.82,6.82,0,0,1-1.35,2.35,2,2,0,0,1-1.44.54H107.8a1.57,1.57,0,0,1-1.44-.72,5.7,5.7,0,0,1-1-2.08q-.63-1.8-.9-2.61l-39.3-108a14.31,14.31,0,0,0-5.31-6,29.94,29.94,0,0,0-4.19-2.21,17,17,0,0,1-3.29-1.76,3.39,3.39,0,0,1-1.17-1.26,3.87,3.87,0,0,1-.09-.72,2,2,0,0,1,.09-.63,1.09,1.09,0,0,1,1.08-.54H82.84a2.9,2.9,0,0,1,1.62.54,4.08,4.08,0,0,1,1.08,1.35,1.48,1.48,0,0,1,.09.45,2.53,2.53,0,0,1-1,1.81c-.6.54-1.28,1.12-2,1.75A5.74,5.74,0,0,0,81,87.48a5,5,0,0,0-.36,1.89A6.2,6.2,0,0,0,81.22,92Z"/></svg>